<?xml version="1.0" encoding="UTF-8"?>
<!DOCTYPE svg PUBLIC "-//W3C//DTD SVG 1.1//EN" "http://www.w3.org/Graphics/SVG/1.1/DTD/svg11.dtd">
<svg xmlns="http://www.w3.org/2000/svg" xmlns:xlink="http://www.w3.org/1999/xlink">
    <defs>
        <symbol id="icon-search" width="15.13" height="13.85">
            <path
                d="m14.92,12.85l-4.12-3.35c1.7-2.33,1.52-5.65-.6-7.75-1.12-1.12-2.62-1.75-4.22-1.75S2.87.62,1.74,1.75C-.58,4.07-.58,7.87,1.74,10.2c1.12,1.12,2.63,1.75,4.23,1.75s2.95-.57,4.07-1.6l4.17,3.38c.1.07.23.12.35.12.18,0,.32-.07.43-.2.2-.25.18-.6-.07-.8Zm-8.95-2.03c-1.3,0-2.5-.5-3.43-1.42-1.9-1.9-1.9-4.97,0-6.85.92-.93,2.12-1.43,3.43-1.43s2.5.5,3.42,1.43c1.9,1.9,1.9,4.97,0,6.85-.9.92-2.12,1.42-3.42,1.42Z"/>
        </symbol>
    </defs>
</svg>
