<?xml version="1.0" encoding="UTF-8"?>
<!DOCTYPE svg PUBLIC "-//W3C//DTD SVG 1.1//EN" "http://www.w3.org/Graphics/SVG/1.1/DTD/svg11.dtd">
<svg xmlns="http://www.w3.org/2000/svg" xmlns:xlink="http://www.w3.org/1999/xlink">
    <defs>
        <symbol id="icon-search" width="15.13" height="13.85">
            <path
                d="m14.92,12.85l-4.12-3.35c1.7-2.33,1.52-5.65-.6-7.75-1.12-1.12-2.62-1.75-4.22-1.75S2.87.62,1.74,1.75C-.58,4.07-.58,7.87,1.74,10.2c1.12,1.12,2.63,1.75,4.23,1.75s2.95-.57,4.07-1.6l4.17,3.38c.1.07.23.12.35.12.18,0,.32-.07.43-.2.2-.25.18-.6-.07-.8Zm-8.95-2.03c-1.3,0-2.5-.5-3.43-1.42-1.9-1.9-1.9-4.97,0-6.85.92-.93,2.12-1.43,3.43-1.43s2.5.5,3.42,1.43c1.9,1.9,1.9,4.97,0,6.85-.9.92-2.12,1.42-3.42,1.42Z"/>
        </symbol>
        <symbol id="icon-menu" viewBox="0 0 22.27 16.88">
            <path d="m4.72,1.87h16.69c.45,0,.86-.38.86-.86s-.38-.86-.86-.86H4.72c-.45,0-.86.38-.86.86s.38.86.86.86Z"/>
            <path d="m21.37,7.61H4.72c-.45,0-.86.38-.86.86,0,.45.38.86.86.86h16.69c.45,0,.86-.38.86-.86-.04-.49-.41-.86-.9-.86Z"/>
            <path d="m21.37,15H4.72c-.45,0-.86.38-.86.86s.38.86.86.86h16.69c.45,0,.86-.38.86-.86s-.41-.86-.9-.86Z"/>
            <path d="m1.01,2.03c.56,0,1.01-.45,1.01-1.01s-.45-1.01-1.01-1.01S0,.45,0,1.01s.45,1.01,1.01,1.01Z"/>
            <path d="m1.01,9.45c.56,0,1.01-.45,1.01-1.01s-.45-1.01-1.01-1.01-1.01.45-1.01,1.01.45,1.01,1.01,1.01Z"/>
            <path d="m1.01,16.88c.56,0,1.01-.45,1.01-1.01s-.45-1.01-1.01-1.01-1.01.45-1.01,1.01.45,1.01,1.01,1.01Z"/>
        </symbol>
        <symbol id="icon-dashboard" viewBox="0 0 22.73 20.81">
            <path d="m21.86,19.12h-2.02v-7.39c0-1.2-.98-2.14-2.14-2.14h-2.17c-1.2,0-2.14.97-2.14,2.14v7.39h-2.25V6.07c0-1.2-.97-2.14-2.14-2.14h-2.17c-1.2,0-2.14.97-2.14,2.14v13.05H1.73V.86c0-.45-.38-.86-.86-.86s-.86.38-.86.86v18.34c0,.86.71,1.61,1.61,1.61h20.25c.45,0,.86-.38.86-.86s-.41-.83-.86-.83Zm-15.49,0V6.07c0-.26.22-.45.45-.45h2.17c.26,0,.45.22.45.45v13.05h-3.08Zm8.7,0v-7.39c0-.26.23-.45.45-.45h2.17c.26,0,.45.22.45.45v7.39h-3.08Z"/>
        </symbol>
        <symbol id="icon-contacts" viewBox="0 0 22.68 15.04">
            <path d="m7.53,9.3c2.59,0,4.65-2.1,4.65-4.65S10.08,0,7.53,0,2.88,2.06,2.88,4.65s2.1,4.65,4.65,4.65Zm0-7.65c1.65,0,2.96,1.35,2.96,2.96s-1.35,2.96-2.96,2.96-2.96-1.35-2.96-2.96,1.31-2.96,2.96-2.96Z"/>
            <path d="m7.53,10.46c-2.7,0-5.29,1.09-7.28,3.11-.34.34-.34.86,0,1.2.15.15.38.26.6.26s.45-.08.6-.26c1.65-1.69,3.83-2.62,6.08-2.62s4.39.94,6.07,2.62c.34.34.86.34,1.2,0,.34-.34.34-.86,0-1.2-1.99-1.99-4.57-3.11-7.27-3.11Z"/>
            <path d="m17.09,9.3c1.5,0,2.74-1.24,2.74-2.74s-1.24-2.74-2.74-2.74-2.74,1.24-2.74,2.74c-.04,1.5,1.2,2.74,2.74,2.74Zm0-3.83c.6,0,1.05.49,1.05,1.05,0,.6-.49,1.05-1.05,1.05s-1.05-.49-1.05-1.05c-.04-.56.45-1.05,1.05-1.05Z"/>
            <path d="m22.42,12.6c-1.99-1.84-4.73-2.59-7.46-1.88-.45.11-.71.56-.6,1.01s.6.71,1.01.6c2.18-.56,4.35,0,5.89,1.46.15.15.38.22.56.22.23,0,.45-.07.6-.26.38-.3.34-.82,0-1.16Z"/>
        </symbol>
        <symbol id="icon-projects" viewBox="0 0 18 22.69">
            <path d="m16.91,3.23h-.86v-.86c0-1.28-1.05-2.36-2.36-2.36H2.36C1.05.04,0,1.09,0,2.36v12.83c0,.49.19.94.52,1.31l5.48,5.62c.34.38.82.56,1.35.56h6.86c1.01,0,1.88-.83,1.88-1.88v-.34l1.8-3.64c.07-.11.07-.23.07-.38l.04-12.15c0-.56-.49-1.05-1.09-1.09Zm-.6,3.04h-2.1v-1.39h2.1v1.39Zm-10.39,13.35l-3.08-3.15h3.08v3.15Zm8.29,1.43h-6.6v-5.21c0-.6-.49-1.05-1.05-1.05H1.69V2.36c0-.38.3-.68.67-.68h11.4c.38,0,.68.3.68.68v.82h-.75c-.64,0-1.12.49-1.12,1.09l-.04,12.19c0,.15.04.26.08.38l1.84,3.64v.34c-.04.11-.11.23-.23.23Zm1.01-2.62l-1.05-2.14V7.95h2.1v8.32l-1.05,2.14Z"/>
        </symbol>
        <symbol id="icon-events" viewBox="0 0 21.5 21">
            <path d="m7.25,20.25l3.5-3.5,3.5,3.5M10.75.75v2m-3,8v2m3-4v4m3-6v6m7-9.4v12.8c0,.08-.02.16-.05.23-.03.07-.07.14-.13.19-.06.06-.12.1-.19.13-.07.03-.15.05-.23.05H1.35c-.16,0-.31-.06-.42-.18-.11-.11-.18-.27-.18-.42V3.35c0-.16.06-.31.18-.42.11-.11.27-.18.42-.18h18.8c.16,0,.31.06.42.18.11.11.18.27.18.42Z"/>
        </symbol>
        <symbol id="icon-profile" viewBox="0 0 22.7 18.9">
            <path d="m11.36,11.25c3.11,0,5.62-2.51,5.62-5.63S14.48,0,11.36,0s-5.62,2.51-5.62,5.63,2.51,5.63,5.62,5.63Zm0-9.56c2.18,0,3.94,1.76,3.94,3.94s-1.76,3.94-3.94,3.94-3.94-1.76-3.94-3.94,1.76-3.94,3.94-3.94Z"/>
            <path d="m22.43,17.4c-3.08-2.59-6.98-4.01-11.06-4.01S3.38,14.81.3,17.4c-.34.3-.41.83-.11,1.2.3.34.83.41,1.2.11,2.78-2.36,6.3-3.64,9.98-3.64s7.2,1.28,9.94,3.6c.15.15.34.19.56.19s.49-.11.64-.3c.3-.34.26-.86-.07-1.16Z"/>
        </symbol>
        <symbol id="icon-log-out" viewBox="0 0 21.94 22.69">
            <path d="m6.49,21.86c0-.45-.38-.86-.86-.86h-3.34c-.34,0-.6-.26-.6-.6V2.33c0-.34.26-.6.6-.6h3.34c.49,0,.86-.41.86-.86S6.11,0,5.63,0h-3.34c-1.28,0-2.29,1.01-2.29,2.29v18.11c0,1.28,1.01,2.29,2.29,2.29h3.34c.49.04.86-.38.86-.82Z"/>
            <path d="m15.23,6.52l3.9,4.01H6.15c-.45,0-.86.38-.86.86,0,.45.38.86.86.86h12.98l-3.9,4.01c-.15.15-.23.38-.23.6s.07.45.26.6c.34.34.86.3,1.2,0l5.25-5.51c.3-.34.3-.86,0-1.16l-5.29-5.48c-.34-.34-.86-.34-1.2,0-.3.34-.34.86,0,1.2Z"/>
        </symbol>
        <svg id="icon-close" viewBox="0 0 21.21 21.22">
            <path d="m11.8,10.6L20.95,1.45c.34-.34.34-.86,0-1.2-.34-.34-.86-.34-1.2,0l-9.15,9.15L1.45.25C1.12-.08.59-.08.25.25-.08.59-.08,1.12.25,1.45l9.15,9.15L.25,19.75c-.34.34-.34.86,0,1.2.15.15.38.26.6.26s.45-.07.6-.26l9.15-9.15,9.15,9.15c.15.15.38.26.6.26s.45-.07.6-.26c.34-.34.34-.86,0-1.2l-9.15-9.15Z"/>
        </svg>
    </defs>
</svg>
